<svg width="67" height="58" viewBox="0 0 67 58" fill="none" xmlns="http://www.w3.org/2000/svg">
<path fill-rule="evenodd" clip-rule="evenodd" d="M7.07013 7.27991V50.4499H50.2301V35.4698H53.5601C55.2101 35.4698 56.7101 34.7999 57.7901 33.7198C58.8701 32.6398 59.5401 31.1399 59.5401 29.4799C59.5401 27.8199 58.8701 26.3199 57.8001 25.2499H57.7901C56.7101 24.1699 55.2101 23.4999 53.5601 23.4999H50.2301V7.28986L40.3201 7.31989C39.4101 9.41989 38.0501 11.1699 36.4401 12.4999C33.9701 14.5399 30.8901 15.6199 27.9101 15.5399C24.9401 15.4599 22.2901 14.4799 20.1501 12.4799C18.7601 11.1799 17.6202 9.47985 16.7802 7.34985L7.07013 7.27991ZM0.400146 53.7599V0.599854L21.8201 0.719849L22.4401 3.22986C22.9401 5.24986 23.7101 6.6899 24.6801 7.5899C25.5801 8.4299 26.7301 8.83988 28.0701 8.87988C29.4601 8.91988 30.9501 8.36985 32.1901 7.34985C33.3601 6.37985 34.2801 4.98989 34.6701 3.25989L35.2501 0.679871L56.8801 0.619873V17.2699C59.0301 17.8599 60.9601 18.9999 62.4901 20.5299L62.4801 20.5399C64.7701 22.8399 66.1901 25.9999 66.1901 29.4799C66.1901 32.9699 64.7801 36.1199 62.4901 38.4099C60.9601 39.9398 59.0301 41.0799 56.8801 41.6699V57.0999H0.390137V53.7599H0.400146Z" fill="#00926F"/>
</svg>
